{
  "accessors": [
    {
      "bufferView": 1,
      "componentType": 5126,
      "count": 25462,
      "max": [
        191.55599975585938,
        107.71399688720703,
        122.30999755859375
      ],
      "min": [
        88.44200134277344,
        57.34400177001953,
        49.75400161743164
      ],
      "type": "VEC3"
    },
    {
      "bufferView": 1,
      "byteOffset": 305544,
      "componentType": 5126,
      "count": 25462,
      "max": [
        0.9998050332069397,
        0.9999798536300659,
        1.0
      ],
      "min": [
        -0.9998391270637512,
        -0.9999617338180542,
        -0.6782840490341187
      ],
      "type": "VEC3"
    },
    {
      "bufferView": 0,
      "componentType": 5125,
      "count": 25962,
      "type": "SCALAR"
    },
    {
      "bufferView": 1,
      "byteOffset": 611088,
      "componentType": 5126,
      "count": 620,
      "max": [
        186.13600158691406,
        104.05599975585938,
        90.052001953125
      ],
      "min": [
        93.85600280761719,
        57.284000396728516,
        0.0
      ],
      "type": "VEC3"
    },
    {
      "bufferView": 1,
      "byteOffset": 618528,
      "componentType": 5126,
      "count": 620,
      "max": [
        0.9895529747009277,
        0.9985179305076599,
        0.9994935393333435
      ],
      "min": [
        -0.9895434975624084,
        -0.997757077217102,
        -1.0
      ],
      "type": "VEC3"
    },
    {
      "bufferView": 0,
      "byteOffset": 103848,
      "componentType": 5125,
      "count": 624,
      "type": "SCALAR"
    }
  ],
  "asset": {
    "extras": {
      "author": "tim.time (https://sketchfab.com/timislav845455)",
      "license": "CC-BY-4.0 (http://creativecommons.org/licenses/by/4.0/)",
      "source": "https://sketchfab.com/3d-models/french-fries-d5bd8273db9e4c08aea9acbd358c11c4",
      "title": "french fries"
    },
    "generator": "Sketchfab-14.8.0",
    "version": "2.0"
  },
  "bufferViews": [
    {
      "buffer": 0,
      "byteLength": 106344,
      "name": "floatBufferViews",
      "target": 34963
    },
    {
      "buffer": 0,
      "byteLength": 625968,
      "byteOffset": 106344,
      "byteStride": 12,
      "name": "floatBufferViews",
      "target": 34962
    }
  ],
  "buffers": [
    {
      "byteLength": 732312,
      "uri": "scene.bin"
    }
  ],
  "materials": [
    {
      "doubleSided": true,
      "name": "Material.001",
      "pbrMetallicRoughness": {
        "baseColorFactor": [
          0.7104042918430193,
          0.7999999999999999,
          0.021252000000000004,
          1.0
        ],
        "metallicFactor": 0.0,
        "roughnessFactor": 0.5
      }
    },
    {
      "doubleSided": true,
      "name": "Material.002",
      "pbrMetallicRoughness": {
        "baseColorFactor": [
          0.8,
          0.00187065,
          0.00187065,
          1.0
        ],
        "metallicFactor": 0.0,
        "roughnessFactor": 0.5
      }
    }
  ],
  "meshes": [
    {
      "name": "Object_0",
      "primitives": [
        {
          "attributes": {
            "NORMAL": 1,
            "POSITION": 0
          },
          "indices": 2,
          "material": 0,
          "mode": 4
        }
      ]
    },
    {
      "name": "Object_1",
      "primitives": [
        {
          "attributes": {
            "NORMAL": 4,
            "POSITION": 3
          },
          "indices": 5,
          "material": 1,
          "mode": 4
        }
      ]
    }
  ],
  "nodes": [
    {
      "children": [
        1
      ],
      "matrix": [
        1.0,
        0.0,
        0.0,
        0.0,
        0.0,
        2.220446049250313e-16,
        -1.0,
        0.0,
        0.0,
        1.0,
        2.220446049250313e-16,
        0.0,
        0.0,
        0.0,
        0.0,
        1.0
      ],
      "name": "Sketchfab_model"
    },
    {
      "children": [
        2
      ],
      "name": "root"
    },
    {
      "children": [
        3
      ],
      "matrix": [
        1.0,
        0.0,
        0.0,
        0.0,
        0.0,
        2.220446049250313e-16,
        1.0,
        0.0,
        0.0,
        -1.0,
        2.220446049250313e-16,
        0.0,
        0.0,
        0.0,
        0.0,
        1.0
      ],
      "name": "GLTF_SceneRootNode"
    },
    {
      "children": [
        4
      ],
      "matrix": [
        0.003106136806309223,
        0.0,
        0.0,
        0.0,
        0.0,
        0.003106136806309223,
        0.0,
        0.0,
        0.0,
        0.0,
        0.003106136806309223,
        0.0,
        0.0,
        0.0,
        0.0,
        1.0
      ],
      "name": "root_1"
    },
    {
      "children": [
        5,
        6
      ],
      "matrix": [
        6.436611175537109,
        0.0,
        0.0,
        0.0,
        -0.0,
        0.0,
        -6.436610698699951,
        0.0,
        0.0,
        6.436610698699951,
        0.0,
        0.0,
        -406.2982482910156,
        0.0,
        1028.140869140625,
        1.0
      ],
      "name": "Mesh_0_0"
    },
    {
      "mesh": 0,
      "name": "Object_5"
    },
    {
      "mesh": 1,
      "name": "Object_6"
    }
  ],
  "scene": 0,
  "scenes": [
    {
      "name": "fries",
      "nodes": [
        0
      ]
    }
  ]
}
