{
  "accessors": [
    {
      "bufferView": 2,
      "componentType": 5126,
      "count": 753,
      "max": [
        0.4419099986553192,
        0.44371598958969116,
        0.7774800062179565
      ],
      "min": [
        -0.4419099986553192,
        -0.44371598958969116,
        0.4788919985294342
      ],
      "type": "VEC3"
    },
    {
      "bufferView": 2,
      "byteOffset": 9036,
      "componentType": 5126,
      "count": 753,
      "max": [
        0.9995068907737732,
        0.9992663860321045,
        1.0
      ],
      "min": [
        -0.9995068907737732,
        -0.9992663860321045,
        -1.0
      ],
      "type": "VEC3"
    },
    {
      "bufferView": 3,
      "componentType": 5126,
      "count": 753,
      "max": [
        0.999700129032135,
        0.9937494993209839,
        0.9995005130767822,
        1.0
      ],
      "min": [
        -1.0,
        -0.9753000140190125,
        -0.9456110596656799,
        -1.0
      ],
      "type": "VEC4"
    },
    {
      "bufferView": 1,
      "componentType": 5126,
      "count": 753,
      "max": [
        0.9742149710655212,
        1.0
      ],
      "min": [
        0.0,
        0.0
      ],
      "type": "VEC2"
    },
    {
      "bufferView": 0,
      "componentType": 5125,
      "count": 3744,
      "type": "SCALAR"
    },
    {
      "bufferView": 2,
      "byteOffset": 18072,
      "componentType": 5126,
      "count": 661,
      "max": [
        0.43097299337387085,
        0.43273401260375977,
        0.19722400605678558
      ],
      "min": [
        -0.43097299337387085,
        -0.43273401260375977,
        0.003484999993816018
      ],
      "type": "VEC3"
    },
    {
      "bufferView": 2,
      "byteOffset": 26004,
      "componentType": 5126,
      "count": 661,
      "max": [
        0.9991755485534668,
        0.9991714954376221,
        1.0
      ],
      "min": [
        -0.9991755485534668,
        -0.9991714954376221,
        -1.0
      ],
      "type": "VEC3"
    },
    {
      "bufferView": 3,
      "byteOffset": 12048,
      "componentType": 5126,
      "count": 661,
      "max": [
        0.9994726181030273,
        0.9588304758071899,
        0.9991670250892639,
        1.0
      ],
      "min": [
        -0.9990054965019226,
        -0.9819251298904419,
        -0.8662536144256592,
        -1.0
      ],
      "type": "VEC4"
    },
    {
      "bufferView": 1,
      "byteOffset": 6024,
      "componentType": 5126,
      "count": 661,
      "max": [
        0.9705619812011719,
        1.0
      ],
      "min": [
        0.0,
        0.0
      ],
      "type": "VEC2"
    },
    {
      "bufferView": 0,
      "byteOffset": 14976,
      "componentType": 5125,
      "count": 3168,
      "type": "SCALAR"
    },
    {
      "bufferView": 2,
      "byteOffset": 33936,
      "componentType": 5126,
      "count": 882,
      "max": [
        0.41043001413345337,
        0.4103809893131256,
        0.37136098742485046
      ],
      "min": [
        -0.41041100025177,
        -0.4103659987449646,
        0.21362000703811646
      ],
      "type": "VEC3"
    },
    {
      "bufferView": 2,
      "byteOffset": 44520,
      "componentType": 5126,
      "count": 882,
      "max": [
        0.9491994976997375,
        0.948827862739563,
        1.0
      ],
      "min": [
        -0.949254035949707,
        -0.9487237334251404,
        -1.0
      ],
      "type": "VEC3"
    },
    {
      "bufferView": 1,
      "byteOffset": 11312,
      "componentType": 5126,
      "count": 882,
      "max": [
        1.0,
        1.0
      ],
      "min": [
        0.0,
        0.0
      ],
      "type": "VEC2"
    },
    {
      "bufferView": 0,
      "byteOffset": 27648,
      "componentType": 5125,
      "count": 5280,
      "type": "SCALAR"
    },
    {
      "bufferView": 2,
      "byteOffset": 55104,
      "componentType": 5126,
      "count": 693,
      "max": [
        0.42510101199150085,
        0.42510101199150085,
        0.3457069993019104
      ],
      "min": [
        -0.42510101199150085,
        -0.42510101199150085,
        0.2128089964389801
      ],
      "type": "VEC3"
    },
    {
      "bufferView": 2,
      "byteOffset": 63420,
      "componentType": 5126,
      "count": 693,
      "max": [
        0.9985138177871704,
        0.9985138177871704,
        1.0
      ],
      "min": [
        -0.9985138177871704,
        -0.9985138177871704,
        -1.0
      ],
      "type": "VEC3"
    },
    {
      "bufferView": 3,
      "byteOffset": 22624,
      "componentType": 5126,
      "count": 693,
      "max": [
        0.9997745752334595,
        0.9982970952987671,
        1.0,
        1.0
      ],
      "min": [
        -0.9994059205055237,
        -0.9994267821311951,
        -0.03304126486182213,
        1.0
      ],
      "type": "VEC4"
    },
    {
      "bufferView": 1,
      "byteOffset": 18368,
      "componentType": 5126,
      "count": 693,
      "max": [
        0.7375530004501343,
        1.0
      ],
      "min": [
        0.0,
        0.0
      ],
      "type": "VEC2"
    },
    {
      "bufferView": 0,
      "byteOffset": 48768,
      "componentType": 5125,
      "count": 3456,
      "type": "SCALAR"
    },
    {
      "bufferView": 2,
      "byteOffset": 71736,
      "componentType": 5126,
      "count": 3036,
      "max": [
        0.40557798743247986,
        0.3473300039768219,
        0.7890440225601196
      ],
      "min": [
        -0.409168004989624,
        -0.3790540099143982,
        0.5706340074539185
      ],
      "type": "VEC3"
    },
    {
      "bufferView": 2,
      "byteOffset": 108168,
      "componentType": 5126,
      "count": 3036,
      "max": [
        0.9998600482940674,
        0.9996431469917297,
        0.9994267225265503
      ],
      "min": [
        -0.9998626708984375,
        -0.9996411204338074,
        -0.9994267225265503
      ],
      "type": "VEC3"
    },
    {
      "bufferView": 1,
      "byteOffset": 23912,
      "componentType": 5126,
      "count": 3036,
      "max": [
        1.0,
        1.0
      ],
      "min": [
        0.0,
        0.0
      ],
      "type": "VEC2"
    },
    {
      "bufferView": 0,
      "byteOffset": 62592,
      "componentType": 5125,
      "count": 17664,
      "type": "SCALAR"
    },
    {
      "bufferView": 2,
      "byteOffset": 144600,
      "componentType": 5126,
      "count": 1972,
      "max": [
        0.45549899339675903,
        0.47779300808906555,
        0.4926309883594513
      ],
      "min": [
        -0.43281200528144836,
        -0.4794119894504547,
        0.43864399194717407
      ],
      "type": "VEC3"
    },
    {
      "bufferView": 2,
      "byteOffset": 168264,
      "componentType": 5126,
      "count": 1972,
      "max": [
        0.9052029252052307,
        0.9087388515472412,
        0.9999994039535522
      ],
      "min": [
        -0.8977689743041992,
        -0.9043185114860535,
        -0.9999994039535522
      ],
      "type": "VEC3"
    },
    {
      "bufferView": 1,
      "byteOffset": 48200,
      "componentType": 5126,
      "count": 1972,
      "max": [
        1.0,
        1.0
      ],
      "min": [
        0.0,
        0.0
      ],
      "type": "VEC2"
    },
    {
      "bufferView": 0,
      "byteOffset": 133248,
      "componentType": 5125,
      "count": 11808,
      "type": "SCALAR"
    },
    {
      "bufferView": 2,
      "byteOffset": 191928,
      "componentType": 5126,
      "count": 5380,
      "max": [
        0.4624429941177368,
        0.4624429941177368,
        0.45576000213623047
      ],
      "min": [
        -0.4624429941177368,
        -0.4624429941177368,
        0.174127995967865
      ],
      "type": "VEC3"
    },
    {
      "bufferView": 2,
      "byteOffset": 256488,
      "componentType": 5126,
      "count": 5380,
      "max": [
        0.7752078771591187,
        0.7752078771591187,
        1.0
      ],
      "min": [
        -0.7752078771591187,
        -0.7752078771591187,
        -1.0
      ],
      "type": "VEC3"
    },
    {
      "bufferView": 1,
      "byteOffset": 63976,
      "componentType": 5126,
      "count": 5380,
      "max": [
        0.0,
        0.0
      ],
      "min": [
        0.0,
        0.0
      ],
      "type": "VEC2"
    },
    {
      "bufferView": 0,
      "byteOffset": 180480,
      "componentType": 5125,
      "count": 32256,
      "type": "SCALAR"
    },
    {
      "bufferView": 2,
      "byteOffset": 321048,
      "componentType": 5126,
      "count": 5060,
      "max": [
        0.40823501348495483,
        0.2121559977531433,
        0.4125159978866577
      ],
      "min": [
        -0.4627879858016968,
        -0.4651300013065338,
        0.3490999937057495
      ],
      "type": "VEC3"
    },
    {
      "bufferView": 2,
      "byteOffset": 381768,
      "componentType": 5126,
      "count": 5060,
      "max": [
        0.999836266040802,
        0.9998137354850769,
        1.0
      ],
      "min": [
        -0.9998307824134827,
        -0.9998307824134827,
        -1.0
      ],
      "type": "VEC3"
    },
    {
      "bufferView": 1,
      "byteOffset": 107016,
      "componentType": 5126,
      "count": 5060,
      "max": [
        0.0,
        0.0
      ],
      "min": [
        0.0,
        0.0
      ],
      "type": "VEC2"
    },
    {
      "bufferView": 0,
      "byteOffset": 309504,
      "componentType": 5125,
      "count": 30336,
      "type": "SCALAR"
    }
  ],
  "asset": {
    "extras": {
      "author": "daisyshot (https://sketchfab.com/daisyshot)",
      "license": "CC-BY-NC-4.0 (http://creativecommons.org/licenses/by-nc/4.0/)",
      "source": "https://sketchfab.com/3d-models/yummy-hamburger-25e6a02c2cc74e259a582b950cf9817c",
      "title": "Yummy Hamburger"
    },
    "generator": "Sketchfab-16.7.0",
    "version": "2.0"
  },
  "bufferViews": [
    {
      "buffer": 0,
      "byteLength": 430848,
      "name": "floatBufferViews",
      "target": 34963
    },
    {
      "buffer": 0,
      "byteLength": 147496,
      "byteOffset": 430848,
      "byteStride": 8,
      "name": "floatBufferViews",
      "target": 34962
    },
    {
      "buffer": 0,
      "byteLength": 442488,
      "byteOffset": 578344,
      "byteStride": 12,
      "name": "floatBufferViews",
      "target": 34962
    },
    {
      "buffer": 0,
      "byteLength": 33712,
      "byteOffset": 1020832,
      "byteStride": 16,
      "name": "floatBufferViews",
      "target": 34962
    }
  ],
  "buffers": [
    {
      "byteLength": 1054544,
      "uri": "scene.bin"
    }
  ],
  "extensionsUsed": [
    "KHR_materials_specular"
  ],
  "images": [
    {
      "uri": "textures/Bacon_baseColor.png"
    },
    {
      "uri": "textures/Bread_baseColor.png"
    },
    {
      "uri": "textures/Bread_normal.png"
    },
    {
      "uri": "textures/Bread.001_baseColor.png"
    },
    {
      "uri": "textures/Hamburger_baseColor.png"
    },
    {
      "uri": "textures/Hamburger_normal.png"
    }
  ],
  "materials": [
    {
      "doubleSided": true,
      "name": "Bacon",
      "pbrMetallicRoughness": {
        "baseColorTexture": {
          "index": 0
        },
        "metallicFactor": 0.0,
        "roughnessFactor": 0.4434299228340505
      }
    },
    {
      "doubleSided": true,
      "extensions": {
        "KHR_materials_specular": {
          "specularColorFactor": [
            1.0,
            1.0,
            1.0
          ],
          "specularFactor": 0.4860967195328595
        }
      },
      "name": "Bread",
      "normalTexture": {
        "index": 2
      },
      "pbrMetallicRoughness": {
        "baseColorTexture": {
          "index": 1
        },
        "metallicFactor": 0.0,
        "roughnessFactor": 0.4007631261352415
      }
    },
    {
      "doubleSided": true,
      "name": "Bread.001",
      "normalTexture": {
        "index": 2
      },
      "pbrMetallicRoughness": {
        "baseColorTexture": {
          "index": 3
        },
        "metallicFactor": 0.0,
        "roughnessFactor": 0.5043824895466348
      }
    },
    {
      "doubleSided": true,
      "name": "Cheese",
      "pbrMetallicRoughness": {
        "baseColorFactor": [
          0.7999999999999999,
          0.3455680000000001,
          0.023062000000000006,
          1.0
        ],
        "metallicFactor": 0.0,
        "roughnessFactor": 0.0
      }
    },
    {
      "doubleSided": true,
      "name": "Hamburger",
      "normalTexture": {
        "index": 5,
        "scale": 0.8700978898221403
      },
      "pbrMetallicRoughness": {
        "baseColorTexture": {
          "index": 4
        },
        "metallicFactor": 0.0,
        "roughnessFactor": 0.43123940949153367
      }
    },
    {
      "doubleSided": true,
      "name": "Lettuce",
      "pbrMetallicRoughness": {
        "baseColorFactor": [
          0.22811900000000002,
          0.46719999999999995,
          0.014514000000000004,
          1.0
        ],
        "metallicFactor": 0.0,
        "roughnessFactor": 0.8092107197812136
      }
    },
    {
      "doubleSided": true,
      "name": "Seed",
      "pbrMetallicRoughness": {
        "baseColorFactor": [
          0.384373,
          0.323953,
          0.12449,
          1.0
        ],
        "metallicFactor": 0.0,
        "roughnessFactor": 0.8011823178082373
      }
    },
    {
      "doubleSided": true,
      "name": "Tomato",
      "pbrMetallicRoughness": {
        "baseColorFactor": [
          0.38437299999999996,
          0.041725999999999916,
          0.0064739999999999945,
          1.0
        ],
        "metallicFactor": 0.0,
        "roughnessFactor": 0.38247735612146627
      }
    }
  ],
  "meshes": [
    {
      "name": "Object_0",
      "primitives": [
        {
          "attributes": {
            "NORMAL": 1,
            "POSITION": 0,
            "TANGENT": 2,
            "TEXCOORD_0": 3
          },
          "indices": 4,
          "material": 1,
          "mode": 4
        }
      ]
    },
    {
      "name": "Object_1",
      "primitives": [
        {
          "attributes": {
            "NORMAL": 6,
            "POSITION": 5,
            "TANGENT": 7,
            "TEXCOORD_0": 8
          },
          "indices": 9,
          "material": 2,
          "mode": 4
        }
      ]
    },
    {
      "name": "Object_2",
      "primitives": [
        {
          "attributes": {
            "NORMAL": 11,
            "POSITION": 10,
            "TEXCOORD_0": 12
          },
          "indices": 13,
          "material": 3,
          "mode": 4
        }
      ]
    },
    {
      "name": "Object_3",
      "primitives": [
        {
          "attributes": {
            "NORMAL": 15,
            "POSITION": 14,
            "TANGENT": 16,
            "TEXCOORD_0": 17
          },
          "indices": 18,
          "material": 4,
          "mode": 4
        }
      ]
    },
    {
      "name": "Object_4",
      "primitives": [
        {
          "attributes": {
            "NORMAL": 20,
            "POSITION": 19,
            "TEXCOORD_0": 21
          },
          "indices": 22,
          "material": 6,
          "mode": 4
        }
      ]
    },
    {
      "name": "Object_5",
      "primitives": [
        {
          "attributes": {
            "NORMAL": 24,
            "POSITION": 23,
            "TEXCOORD_0": 25
          },
          "indices": 26,
          "material": 0,
          "mode": 4
        }
      ]
    },
    {
      "name": "Object_6",
      "primitives": [
        {
          "attributes": {
            "NORMAL": 28,
            "POSITION": 27,
            "TEXCOORD_0": 29
          },
          "indices": 30,
          "material": 5,
          "mode": 4
        }
      ]
    },
    {
      "name": "Object_7",
      "primitives": [
        {
          "attributes": {
            "NORMAL": 32,
            "POSITION": 31,
            "TEXCOORD_0": 33
          },
          "indices": 34,
          "material": 7,
          "mode": 4
        }
      ]
    }
  ],
  "nodes": [
    {
      "children": [
        1
      ],
      "matrix": [
        0.2704692482948303,
        0.0,
        0.0,
        0.0,
        0.0,
        6.00562373819958e-17,
        -0.2704692482948303,
        0.0,
        0.0,
        0.2704692482948303,
        6.00562373819958e-17,
        0.0,
        0.0,
        0.0,
        0.0,
        1.0
      ],
      "name": "Sketchfab_model"
    },
    {
      "children": [
        2,
        3,
        4,
        5,
        6,
        7,
        8,
        9
      ],
      "name": "hamburgr baked.obj.cleaner.materialmerger.gles"
    },
    {
      "mesh": 0,
      "name": "Object_2"
    },
    {
      "mesh": 1,
      "name": "Object_3"
    },
    {
      "mesh": 2,
      "name": "Object_4"
    },
    {
      "mesh": 3,
      "name": "Object_5"
    },
    {
      "mesh": 4,
      "name": "Object_6"
    },
    {
      "mesh": 5,
      "name": "Object_7"
    },
    {
      "mesh": 6,
      "name": "Object_8"
    },
    {
      "mesh": 7,
      "name": "Object_9"
    }
  ],
  "samplers": [
    {
      "magFilter": 9729,
      "minFilter": 9987,
      "wrapS": 10497,
      "wrapT": 10497
    }
  ],
  "scene": 0,
  "scenes": [
    {
      "name": "brg",
      "nodes": [
        0
      ]
    }
  ],
  "textures": [
    {
      "sampler": 0,
      "source": 0
    },
    {
      "sampler": 0,
      "source": 1
    },
    {
      "sampler": 0,
      "source": 2
    },
    {
      "sampler": 0,
      "source": 3
    },
    {
      "sampler": 0,
      "source": 4
    },
    {
      "sampler": 0,
      "source": 5
    }
  ]
}
