{
  "accessors": [
    {
      "bufferView": 2,
      "componentType": 5126,
      "count": 248,
      "max": [
        -3.3177852630615234,
        2.5525965690612793,
        -10.521939277648926
      ],
      "min": [
        -7.81801700592041,
        0.3404996693134308,
        -15.022171020507813
      ],
      "type": "VEC3"
    },
    {
      "bufferView": 2,
      "byteOffset": 2976,
      "componentType": 5126,
      "count": 248,
      "max": [
        0.9575308561325073,
        1.0,
        0.9575305581092834
      ],
      "min": [
        -0.9575307965278625,
        -1.0,
        -0.9575307369232178
      ],
      "type": "VEC3"
    },
    {
      "bufferView": 3,
      "componentType": 5126,
      "count": 248,
      "max": [
        0.9999197125434875,
        0.3680257499217987,
        0.9999169111251831,
        1.0
      ],
      "min": [
        -0.9999244809150696,
        -0.5222313404083252,
        -0.9999178647994995,
        1.0
      ],
      "type": "VEC4"
    },
    {
      "bufferView": 1,
      "componentType": 5126,
      "count": 248,
      "max": [
        0.27284252643585205,
        0.9781478643417358
      ],
      "min": [
        0.05358552932739258,
        0.013647079467773438
      ],
      "type": "VEC2"
    },
    {
      "bufferView": 0,
      "componentType": 5125,
      "count": 960,
      "type": "SCALAR"
    },
    {
      "bufferView": 2,
      "byteOffset": 5952,
      "componentType": 5126,
      "count": 448,
      "max": [
        16.66593360900879,
        24.306476593017578,
        -9.321351051330566
      ],
      "min": [
        6.248363494873047,
        0.3479611873626709,
        -18.23122787475586
      ],
      "type": "VEC3"
    },
    {
      "bufferView": 2,
      "byteOffset": 11328,
      "componentType": 5126,
      "count": 448,
      "max": [
        1.0,
        1.0,
        1.0
      ],
      "min": [
        -1.0,
        -1.0,
        -1.0
      ],
      "type": "VEC3"
    },
    {
      "bufferView": 3,
      "byteOffset": 3968,
      "componentType": 5126,
      "count": 448,
      "max": [
        1.0,
        1.0,
        1.0,
        1.0
      ],
      "min": [
        -1.0,
        -1.0,
        -1.0,
        1.0
      ],
      "type": "VEC4"
    },
    {
      "bufferView": 1,
      "byteOffset": 1984,
      "componentType": 5126,
      "count": 448,
      "max": [
        0.9916110038757324,
        0.9935262799263
      ],
      "min": [
        0.00199204683303833,
        0.0019421130418777466
      ],
      "type": "VEC2"
    },
    {
      "bufferView": 0,
      "byteOffset": 3840,
      "componentType": 5125,
      "count": 1296,
      "type": "SCALAR"
    },
    {
      "bufferView": 2,
      "byteOffset": 16704,
      "componentType": 5126,
      "count": 272,
      "max": [
        8.025684356689453,
        2.3742854595184326,
        -10.406682968139648
      ],
      "min": [
        -2.899724006652832,
        0.3730719983577728,
        -16.1318302154541
      ],
      "type": "VEC3"
    },
    {
      "bufferView": 2,
      "byteOffset": 19968,
      "componentType": 5126,
      "count": 272,
      "max": [
        0.9598886370658875,
        0.9999927282333374,
        0.9957637190818787
      ],
      "min": [
        -0.9554002285003662,
        -0.9999168515205383,
        -0.9814573526382446
      ],
      "type": "VEC3"
    },
    {
      "bufferView": 3,
      "byteOffset": 11136,
      "componentType": 5126,
      "count": 272,
      "max": [
        0.9885990023612976,
        0.9838493466377258,
        0.735334038734436,
        1.0
      ],
      "min": [
        -0.8704644441604614,
        -0.9653605222702026,
        -0.9099590182304382,
        1.0
      ],
      "type": "VEC4"
    },
    {
      "bufferView": 1,
      "byteOffset": 5568,
      "componentType": 5126,
      "count": 272,
      "max": [
        0.9893873929977417,
        0.25361400842666626
      ],
      "min": [
        0.6276199221611023,
        0.062347039580345154
      ],
      "type": "VEC2"
    },
    {
      "bufferView": 0,
      "byteOffset": 9024,
      "componentType": 5125,
      "count": 1224,
      "type": "SCALAR"
    },
    {
      "bufferView": 2,
      "byteOffset": 23232,
      "componentType": 5126,
      "count": 3052,
      "max": [
        7.061491012573242,
        19.35643196105957,
        -14.124053001403809
      ],
      "min": [
        -7.318480491638184,
        0.3160819709300995,
        -20.91387367248535
      ],
      "type": "VEC3"
    },
    {
      "bufferView": 2,
      "byteOffset": 59856,
      "componentType": 5126,
      "count": 3052,
      "max": [
        0.9999558925628662,
        1.0,
        1.0
      ],
      "min": [
        -0.9999184608459473,
        -0.9999988675117493,
        -1.0
      ],
      "type": "VEC3"
    },
    {
      "bufferView": 3,
      "byteOffset": 15488,
      "componentType": 5126,
      "count": 3052,
      "max": [
        0.9999949336051941,
        0.9974455237388611,
        0.999918520450592,
        1.0
      ],
      "min": [
        -0.99998939037323,
        -0.9913100600242615,
        -1.0,
        -1.0
      ],
      "type": "VEC4"
    },
    {
      "bufferView": 1,
      "byteOffset": 7744,
      "componentType": 5126,
      "count": 3052,
      "max": [
        0.6539513468742371,
        0.9937588572502136
      ],
      "min": [
        0.0039471834897994995,
        0.0023743510246276855
      ],
      "type": "VEC2"
    },
    {
      "bufferView": 0,
      "byteOffset": 13920,
      "componentType": 5125,
      "count": 12768,
      "type": "SCALAR"
    }
  ],
  "asset": {
    "extras": {
      "author": "Devden (https://sketchfab.com/Devden)",
      "license": "CC-BY-4.0 (http://creativecommons.org/licenses/by/4.0/)",
      "source": "https://sketchfab.com/3d-models/french-fries-free-bef5383eb98b48528b2d82d8887b5bb4",
      "title": "French Fries - FREE"
    },
    "generator": "Sketchfab-12.68.0",
    "version": "2.0"
  },
  "bufferViews": [
    {
      "buffer": 0,
      "byteLength": 64992,
      "name": "floatBufferViews",
      "target": 34963
    },
    {
      "buffer": 0,
      "byteLength": 32160,
      "byteOffset": 64992,
      "byteStride": 8,
      "name": "floatBufferViews",
      "target": 34962
    },
    {
      "buffer": 0,
      "byteLength": 96480,
      "byteOffset": 97152,
      "byteStride": 12,
      "name": "floatBufferViews",
      "target": 34962
    },
    {
      "buffer": 0,
      "byteLength": 64320,
      "byteOffset": 193632,
      "byteStride": 16,
      "name": "floatBufferViews",
      "target": 34962
    }
  ],
  "buffers": [
    {
      "byteLength": 257952,
      "uri": "scene.bin"
    }
  ],
  "images": [
    {
      "uri": "textures/french_fries_baseColor.png"
    },
    {
      "uri": "textures/french_fries_metallicRoughness.png"
    },
    {
      "uri": "textures/french_fries_normal.png"
    }
  ],
  "materials": [
    {
      "doubleSided": true,
      "name": "french_fries",
      "normalTexture": {
        "index": 2
      },
      "occlusionTexture": {
        "index": 1
      },
      "pbrMetallicRoughness": {
        "baseColorTexture": {
          "index": 0
        },
        "metallicRoughnessTexture": {
          "index": 1
        },
        "roughnessFactor": 0.8
      }
    }
  ],
  "meshes": [
    {
      "name": "jam_french_fries_0",
      "primitives": [
        {
          "attributes": {
            "NORMAL": 1,
            "POSITION": 0,
            "TANGENT": 2,
            "TEXCOORD_0": 3
          },
          "indices": 4,
          "material": 0,
          "mode": 4
        }
      ]
    },
    {
      "name": "coke_french_fries_0",
      "primitives": [
        {
          "attributes": {
            "NORMAL": 6,
            "POSITION": 5,
            "TANGENT": 7,
            "TEXCOORD_0": 8
          },
          "indices": 9,
          "material": 0,
          "mode": 4
        }
      ]
    },
    {
      "name": "french_fries_set_french_fries_0",
      "primitives": [
        {
          "attributes": {
            "NORMAL": 11,
            "POSITION": 10,
            "TANGENT": 12,
            "TEXCOORD_0": 13
          },
          "indices": 14,
          "material": 0,
          "mode": 4
        }
      ]
    },
    {
      "name": "french_frice_packet_french_fries_0",
      "primitives": [
        {
          "attributes": {
            "NORMAL": 16,
            "POSITION": 15,
            "TANGENT": 17,
            "TEXCOORD_0": 18
          },
          "indices": 19,
          "material": 0,
          "mode": 4
        }
      ]
    }
  ],
  "nodes": [
    {
      "children": [
        1
      ],
      "matrix": [
        1.25,
        0.0,
        0.0,
        0.0,
        0.0,
        2.7755575615628914e-16,
        -1.25,
        0.0,
        0.0,
        1.25,
        2.7755575615628914e-16,
        0.0,
        0.0,
        0.0,
        0.0,
        1.0
      ],
      "name": "Sketchfab_model"
    },
    {
      "children": [
        2
      ],
      "matrix": [
        0.009999999776482582,
        0.0,
        0.0,
        0.0,
        0.0,
        0.0,
        0.009999999776482582,
        0.0,
        0.0,
        -0.009999999776482582,
        0.0,
        0.0,
        0.0,
        0.0,
        0.0,
        1.0
      ],
      "name": "french frice.fbx"
    },
    {
      "children": [
        3,
        5,
        7,
        9
      ],
      "name": "RootNode"
    },
    {
      "children": [
        4
      ],
      "matrix": [
        1.0,
        0.0,
        0.0,
        0.0,
        0.0,
        1.0,
        0.0,
        0.0,
        0.0,
        0.0,
        1.0,
        0.0,
        0.0,
        -0.00011093467037426308,
        0.0,
        1.0
      ],
      "name": "jam"
    },
    {
      "mesh": 0,
      "name": "jam_french_fries_0"
    },
    {
      "children": [
        6
      ],
      "matrix": [
        1.0,
        0.0,
        0.0,
        0.0,
        0.0,
        1.0,
        0.0,
        0.0,
        0.0,
        0.0,
        1.0,
        0.0,
        0.0,
        -0.00011093467037426308,
        0.0,
        1.0
      ],
      "name": "coke"
    },
    {
      "mesh": 1,
      "name": "coke_french_fries_0"
    },
    {
      "children": [
        8
      ],
      "matrix": [
        1.0,
        0.0,
        0.0,
        0.0,
        0.0,
        1.0,
        0.0,
        0.0,
        0.0,
        0.0,
        1.0,
        0.0,
        0.0,
        -0.00011093467037426308,
        0.0,
        1.0
      ],
      "name": "french_fries_set"
    },
    {
      "mesh": 2,
      "name": "french_fries_set_french_fries_0"
    },
    {
      "children": [
        10
      ],
      "matrix": [
        1.0,
        0.0,
        0.0,
        0.0,
        0.0,
        1.0,
        0.0,
        0.0,
        0.0,
        0.0,
        1.0,
        0.0,
        0.0,
        -0.00011093467037426308,
        0.0,
        1.0
      ],
      "name": "french_frice_packet"
    },
    {
      "mesh": 3,
      "name": "french_frice_packet_french_fries_0"
    }
  ],
  "samplers": [
    {
      "magFilter": 9729,
      "minFilter": 9987,
      "wrapS": 10497,
      "wrapT": 10497
    }
  ],
  "scene": 0,
  "scenes": [
    {
      "name": "fries",
      "nodes": [
        0
      ]
    }
  ],
  "textures": [
    {
      "sampler": 0,
      "source": 0
    },
    {
      "sampler": 0,
      "source": 1
    },
    {
      "sampler": 0,
      "source": 2
    }
  ]
}
